<svg width="1440" height="463" viewBox="0 0 1440 463" fill="none" xmlns="http://www.w3.org/2000/svg">
<path d="M0 0.5H1440V432.5L1410 418.5L1374 400.5L1338.5 383L1296.5 361L1260.5 343L1225.5 325L1196.5 310L1169.5 296.5L1138.5 281.5L1108.5 268L1082.5 258.5L1059 250.5L1037.5 245L1009 239.5L987.5 238.5H966L946.5 241.5L929 245L911 250.5L893 257L876 264L856 274L837.5 284.5L817.5 295.5L800.5 305.5L780 318L764.5 328.5L747.5 338.5L727 352L708 363L693 372.5L673.5 384L656 394L637.5 404.5L621 412.5L601.5 421.5L581 431.5L559 440L534.5 448L513.5 453.5L484 459L457.5 461.5L438.5 462.5L412 461.5L389 457.5L362 451L337.5 442L314 432L292 419.5L274 409L252 396.5L234.5 387L211 375.5L193.5 366.5L176 358L157 349L142 341.5L117.5 331.5L99 323.5L85 318.5L66 312L47.5 305.5L35.75 301.5L24.5 298.5L12.5 295L0 292V0.5Z" fill="#3D5A80" fill-opacity="0.8"/>
</svg>
