<svg width="1440" height="595" viewBox="0 0 1440 595" fill="none" xmlns="http://www.w3.org/2000/svg">
<path d="M0 0H1440V475L1421.5 467L1404 459L1386 451L1369.5 445L1353 439.5L1331.5 433.5L1310.5 430.5L1285.5 427H1260L1236 429L1211.5 433.5L1188.5 439.5L1167 447L1141.5 459L1118 473.5L1091.5 491.5L1064.5 508.5L1039.5 522L1011 539L983.5 553.5L959.5 564L932 574.5L908 582.5L885.5 588L858.5 592L836.5 595H813.5L777.5 592.5L741 588L701 578L675.5 570.5L654.5 562L633 553L616 545L599.5 537L581.5 527.5L563 516.5L542.5 504L524 493L504.5 481L488.5 471.5L464.5 457L449 448.5L434 440.5L415.5 429.5L397 420L383 412.5L371 405.5L356 399L343.5 393.5L325 386.5L312 382L299.5 380.5L285.5 379.5H272L256.5 380.5L239 382L223.5 386.5L208 392L191.5 398.5L179 405.5L164 412.5L151 419.5L137 427L124 434.5L110 442L97 450.5L83 458.5L70 466.5L55.5 474.5L41.5 483L26 492.5L12.5 500L0 507V0Z" fill="#E0FBFC"/>
</svg>
