<svg width="1440" height="418" viewBox="0 0 1440 418" fill="none" xmlns="http://www.w3.org/2000/svg">
<path d="M0 0H1440V301L1428.5 295.5L1416.5 290.5L1403.5 285L1389.5 280L1375.5 276.5L1360.5 273.5L1343 270.5L1323.5 269.5L1301.5 272L1282.5 275L1265.5 280L1251.5 286L1236.5 293.5L1224 300.5L1209.5 309L1196 318L1181 330L1164.5 343L1144.5 357L1127.5 368L1109.5 379L1089 388.5L1067.5 397.5L1046 405L1023.5 410.5L998.5 415L978 416L957 417.5L932.5 416L910.5 415L885.5 409L860 403.5L837.5 397.5L815.5 390L790 381L762 370.5L738.5 361L718 352.5L702 345.5L681 336L661 328.5L641.5 320L621 313L598.5 305L573 296.5L559 292L542 287.5L525 283L508 279L487.5 275L463 271.5L447.5 270L426.5 269H404L382 270L364 273.5L342.5 276.5L324.5 281.5L302 289.5L277.5 300L254.5 310L234.5 318L215.5 327.5L195.5 337L174.5 347.5L151.5 357.5L136 363L118.5 367.5L100 369.5L80.5 370.5L62 369.5L42.5 365L25 360L11 355.5L0 351V0Z" fill="#EE6C4D"/>
</svg>
